<?xml version="1.0" encoding="UTF-8"?>
<svg width="190px" height="200px" viewBox="0 0 190 200" version="1.1" xmlns="http://www.w3.org/2000/svg" xmlns:xlink="http://www.w3.org/1999/xlink">
    <title>c-mobile</title>
    <g id="c-mobile" stroke="none" stroke-width="1" fill="none" fill-rule="evenodd">
        <path d="M59.7292222,182.580714 C45.4016423,174.705907 33.4908525,163.076372 25.276697,148.94173 C16.8070557,134.307864 12.4614862,117.652714 12.7019384,100.746781 C12.4593176,83.8353606 16.8049333,67.1743233 25.276697,52.5353102 C33.4944527,38.3992359 45.4039943,26.7652078 59.7292222,18.8798043 C74.7800014,10.6367781 91.7128941,6.44104576 108.871577,6.70302086 C121.525822,6.5675608 134.09637,8.76883434 145.951417,13.1962039 C157.67506,17.9117959 168.259496,25.070536 177,34.1957856 L145.819225,188.148659 C134.021826,192.630879 121.491418,194.872197 108.871577,194.757497 C91.7122882,195.024775 74.7780606,190.828712 59.7292222,182.580714 Z" id="Mask" stroke="#343B46" stroke-width="3" opacity="0.504650298" stroke-linejoin="round" fill-rule="nonzero"></path>
        <text id="FINTECH" font-family="SofiaPro-Bold, Sofia Pro" font-size="24" font-weight="bold" fill="#862F5D">
            <tspan x="45.376" y="107">FINTECH</tspan>
        </text>
    </g>
</svg>