<?xml version="1.0" encoding="UTF-8"?>
<svg width="154px" height="114px" viewBox="0 0 154 114" version="1.1" xmlns="http://www.w3.org/2000/svg" xmlns:xlink="http://www.w3.org/1999/xlink">
    <title>world copy 6</title>
    <defs>
        <filter id="filter-1">
            <feColorMatrix in="SourceGraphic" type="matrix" values="0 0 0 0 0.839216 0 0 0 0 0.121569 0 0 0 0 0.149020 0 0 0 1.000000 0"></feColorMatrix>
        </filter>
    </defs>
    <g id="WEBSITE-Single-Page-FINAL" stroke="none" stroke-width="1" fill="none" fill-rule="evenodd">
        <g id="version-1" transform="translate(-977.000000, -3417.000000)">
            <g id="world-copy-6" transform="translate(979.000000, 3399.000000)" filter="url(#filter-1)">
                <g>
                    <path d="M126.438173,70.4290039 C126.408427,70.4458454 126.384259,70.4664295 126.354513,70.4813998 L111.576394,76.5499729 L111.122769,76.748329 L107.525378,93.3185463 C107.281834,93.8761889 106.567933,94.0165351 106.078985,93.5393578 L95.3165581,80.7266782 L95.2552073,80.6929951 L34.5494671,106.919036 C34.5048483,106.945234 34.4453565,106.958333 34.3858648,106.958333 C34.1590526,106.958333 33.975,106.774948 33.975,106.546651 C33.975,106.411918 34.0344917,106.294028 34.1441796,106.217305 L86.6289054,66.6752087 L79.9862812,51.4167613 C79.6590766,50.7187725 80.2670078,49.9796154 81.0831601,50.181714 L97.1663793,54.1694196 L109.655926,42.9754004 L109.655926,42.9828856 C110.193211,42.550619 110.923844,42.8593809 111.059559,43.5367856 L112.277281,60.3409133 L126.687295,68.8178286 C127.306381,69.2220259 127.207847,70.1408262 126.438173,70.4290039 Z M119.979054,23.4023404 C101.218556,16.0217025 80.601842,21.5632798 67.8721721,35.7521949 L18.2090575,89.1055933 C17.5335598,89.8224516 17.8479189,90.723216 18.6712402,90.8451945 L31.8911605,91.6615122 C32.9521222,91.7196865 33.081234,92.6392168 32.5498175,93.2697519 L0.208260199,128.255064 C-0.356837597,128.861203 0.324273654,129.814512 1.10268651,129.568679 L47.2760415,114.935011 C48.2509288,114.599101 49.0050162,115.46984 48.587742,116.23549 L48.587742,116.242996 L42.4165747,127.194789 C42.0909886,127.814065 42.6953812,128.669791 43.4737941,128.611616 L110.039321,113.730239 C125.948133,111.217482 140.154168,100.565943 146.465674,84.4516442 C155.969422,60.2454789 144.087398,32.9279234 119.979054,23.4023404 L119.979054,23.4023404 Z" id="Fill-19-Copy" stroke="#D61F26" stroke-width="3.78"></path>
                </g>
            </g>
        </g>
    </g>
</svg>