<?xml version="1.0" encoding="UTF-8"?>
<svg width="181px" height="196px" viewBox="0 0 181 196" version="1.1" xmlns="http://www.w3.org/2000/svg" xmlns:xlink="http://www.w3.org/1999/xlink">
    <title>david-greenwood-haigh-h63JW5s6K08-unsplash</title>
    <defs>
        <path d="M52.3575105,183.12074 C36.6405895,174.954274 23.5748139,162.894015 14.5641343,148.235868 C5.27319444,133.060007 0.506236346,115.787999 0.770005134,98.2559211 C0.503857536,80.7181518 5.27086623,63.440039 14.5641343,48.2588402 C23.5787633,33.5992076 36.6431695,21.5342896 52.3575105,13.3568341 C68.8677591,4.80851063 87.4426293,0.457380791 106.265185,0.729058674 C120.146507,0.588581571 133.936018,2.87138376 146.940646,7.46272996 C159.801127,12.3529735 171.411932,19.7768522 181,29.240074 L146.795635,188.894906 C133.854245,193.543133 120.108768,195.867463 106.265185,195.748515 C87.4419647,196.025693 68.8656301,191.67422 52.3575105,183.12074 Z" id="path-1"></path>
    </defs>
    <g id="Page-1" stroke="none" stroke-width="1" fill="none" fill-rule="evenodd">
        <g id="philosophy" transform="translate(-1080.000000, -595.000000)">
            <g id="C" transform="translate(1059.000000, 548.000000)">
                <g id="Group" transform="translate(0.000000, 0.000000)">
                    <g id="david-greenwood-haigh-h63JW5s6K08-unsplash" transform="translate(21.000000, 47.000000)">
                        <mask id="mask-2" fill="white">
                            <use xlink:href="#path-1"></use>
                        </mask>
                        <use id="Mask" fill="#862F5D" fill-rule="nonzero" xlink:href="#path-1"></use>
                    </g>
                </g>
            </g>
        </g>
    </g>
</svg>