<?xml version="1.0" encoding="UTF-8"?>
<svg width="150px" height="150px" viewBox="0 0 150 150" version="1.1" xmlns="http://www.w3.org/2000/svg" xmlns:xlink="http://www.w3.org/1999/xlink">
    <title>world copy 5</title>
    <defs>
        <filter id="filter-1">
            <feColorMatrix in="SourceGraphic" type="matrix" values="0 0 0 0 0.839216 0 0 0 0 0.121569 0 0 0 0 0.149020 0 0 0 1.000000 0"></feColorMatrix>
        </filter>
        <filter id="filter-2">
            <feColorMatrix in="SourceGraphic" type="matrix" values="0 0 0 0 0.839216 0 0 0 0 0.121569 0 0 0 0 0.149020 0 0 0 1.000000 0"></feColorMatrix>
        </filter>
    </defs>
    <g id="Page-1" stroke="none" stroke-width="1" fill="none" fill-rule="evenodd" stroke-linecap="round" stroke-linejoin="round">
        <g id="front-page" transform="translate(-299.000000, -3910.000000)">
            <g id="world-copy-5" transform="translate(296.000000, 3912.000000)" filter="url(#filter-1)">
                <g filter="url(#filter-2)" id="Group-5">
                    <g transform="translate(5.033333, 0.000000)">
                        <path d="M0,85.5666667 C0,52.20825 27.0415833,25.1666667 60.4,25.1666667 C93.7584167,25.1666667 120.8,52.20825 120.8,85.5666667 C120.8,118.925083 93.7584167,145.966667 60.4,145.966667 C27.0415833,145.966667 0,118.925083 0,85.5666667 L0,85.5666667 Z" id="Stroke-1220" stroke="#444444" stroke-width="3.78"></path>
                        <path d="M25.1666667,85.5666667 C25.1666667,66.1078 40.9411333,50.3333333 60.4,50.3333333 C79.8588667,50.3333333 95.6333333,66.1078 95.6333333,85.5666667 C95.6333333,105.025533 79.8588667,120.8 60.4,120.8 C40.9411333,120.8 25.1666667,105.025533 25.1666667,85.5666667 L25.1666667,85.5666667 Z" id="Stroke-1221" stroke="#444444" stroke-width="3.78"></path>
                        <path d="M50.3333333,85.5666667 C50.3333333,80.00735 54.8406833,75.5 60.4,75.5 C65.9593167,75.5 70.4666667,80.00735 70.4666667,85.5666667 C70.4666667,91.1259833 65.9593167,95.6333333 60.4,95.6333333 C54.8406833,95.6333333 50.3333333,91.1259833 50.3333333,85.5666667 L50.3333333,85.5666667 Z" id="Stroke-1222" stroke="#444444" stroke-width="3.78"></path>
                        <line x1="67.51814" y1="78.4485267" x2="140.93434" y2="5.03232667" id="Stroke-1223" stroke="#444444" stroke-width="3.78"></line>
                        <polygon id="Stroke-1224" stroke="#444444" stroke-width="3.78" points="125.833333 0 130.866667 15.1 115.766667 30.2 110.733333 15.1"></polygon>
                        <polygon id="Stroke-1225" stroke="#444444" stroke-width="3.78" points="145.966667 20.1333333 130.866667 15.1 115.766667 30.2 130.866667 35.2333333"></polygon>
                    </g>
                </g>
            </g>
        </g>
    </g>
</svg>