<?xml version="1.0" encoding="UTF-8"?>
<svg width="155px" height="155px" viewBox="0 0 155 155" version="1.1" xmlns="http://www.w3.org/2000/svg" xmlns:xlink="http://www.w3.org/1999/xlink">
    <title>world copy 4</title>
    <defs>
        <filter id="filter-1">
            <feColorMatrix in="SourceGraphic" type="matrix" values="0 0 0 0 0.839216 0 0 0 0 0.121569 0 0 0 0 0.149020 0 0 0 1.000000 0"></feColorMatrix>
        </filter>
        <filter id="filter-2">
            <feColorMatrix in="SourceGraphic" type="matrix" values="0 0 0 0 0.839216 0 0 0 0 0.121569 0 0 0 0 0.149020 0 0 0 1.000000 0"></feColorMatrix>
        </filter>
    </defs>
    <g id="Page-1" stroke="none" stroke-width="1" fill="none" fill-rule="evenodd" stroke-linecap="round" stroke-linejoin="round">
        <g id="front-page" transform="translate(-994.000000, -3910.000000)">
            <g id="world-copy-4" transform="translate(996.000000, 3912.000000)" filter="url(#filter-1)">
                <g filter="url(#filter-2)" id="Group-2">
                    <g>
                        <path d="M32.3582933,13.5323683 C37.1198267,17.053185 42.42496,19.9247017 45.92816,25.796085 C48.9909433,30.9250517 54.2759433,46.8505183 48.0446767,54.908885 C40.99801,64.0242517 20.59036,67.0996183 20.59036,75.5002517 C20.59036,81.8196017 29.53711,89.034885 34.3187767,96.0916183 C41.5063767,106.701885 38.23471,116.982468 34.3187767,123.545935 C32.2878267,126.948468 28.82741,129.671502 25.2310933,131.830802" id="Stroke-3871" stroke="#444444" stroke-width="3.78"></path>
                        <path d="M134.970595,28.98143 C120.149945,36.08598 107.798145,44.88173 99.5736783,42.78283 C90.2469117,40.40458 91.0547617,32.2530967 85.5659117,23.90783 C81.448645,17.6463633 68.636295,13.3629967 68.636295,6.86244667 C68.636295,4.32061333 68.960945,2.05058 69.610245,0.03473" id="Stroke-3873" stroke="#444444" stroke-width="3.78"></path>
                        <path d="M0,75.5 C0,33.80135 33.80135,0 75.5,0 C117.19865,0 151,33.80135 151,75.5 C151,117.19865 117.19865,151 75.5,151 C33.80135,151 0,117.19865 0,75.5 L0,75.5 Z" id="Stroke-3875" stroke="#444444" stroke-width="3.78"></path>
                        <path d="M123.642827,81.7010667 C123.929727,102.863717 94.45201,132.6535 82.36446,123.545683 C72.0385767,115.766667 81.1614933,111.047917 75.5971433,81.7010667 C73.47811,70.5270667 86.3533767,61.1097 99.6212433,61.1097 C112.886593,61.1097 123.48931,70.3307667 123.642827,81.7010667 L123.642827,81.7010667 Z" id="Stroke-3877" stroke="#444444" stroke-width="3.78"></path>
                    </g>
                </g>
            </g>
        </g>
    </g>
</svg>