<?xml version="1.0" encoding="UTF-8"?>
<svg width="155px" height="135px" viewBox="0 0 155 135" version="1.1" xmlns="http://www.w3.org/2000/svg" xmlns:xlink="http://www.w3.org/1999/xlink">
    <title>world copy 15</title>
    <defs>
        <filter id="filter-1">
            <feColorMatrix in="SourceGraphic" type="matrix" values="0 0 0 0 0.839216 0 0 0 0 0.121569 0 0 0 0 0.149020 0 0 0 1.000000 0"></feColorMatrix>
        </filter>
    </defs>
    <g id="WEBSITE-Single-Page-FINAL" stroke="none" stroke-width="1" fill="none" fill-rule="evenodd" stroke-linecap="round" stroke-linejoin="round">
        <g id="version-1" transform="translate(-811.000000, -4050.000000)">
            <g id="world-copy-15" transform="translate(813.000000, 4042.000000)" filter="url(#filter-1)">
                <g>
                    <polyline id="Stroke-1011" stroke="#D61F26" stroke-width="3.78" points="113.25 67.95 125.833333 80.5333333 151 45.3"></polyline>
                    <polyline id="Stroke-1012" stroke="#D61F26" stroke-width="3.78" points="0 95.6333333 20.3643229 75.3062192 35.6375651 90.2124383 50.9108073 60.4 71.2751303 80.2749589 88.0833333 66.6059559"></polyline>
                    <polygon id="Stroke-1013" stroke="#D61F26" stroke-width="3.78" points="151 140.933333 0 140.933333 0 10.0666667 151 10.0666667"></polygon>
                    <line x1="100.666667" y1="75.5" x2="100.666667" y2="140.933333" id="Stroke-1014" stroke="#D61F26" stroke-width="3.78"></line>
                    <line x1="100.666667" y1="10.0666667" x2="100.666667" y2="45.3" id="Stroke-1015" stroke="#D61F26" stroke-width="3.78"></line>
                    <path d="M85.5666667,60.4 C85.5666667,52.0597667 92.3264333,45.3 100.666667,45.3 C109.0069,45.3 115.766667,52.0597667 115.766667,60.4 C115.766667,68.7402333 109.0069,75.5 100.666667,75.5 C92.3264333,75.5 85.5666667,68.7402333 85.5666667,60.4 L85.5666667,60.4 Z" id="Stroke-1016" stroke="#D61F26" stroke-width="3.78"></path>
                </g>
            </g>
        </g>
    </g>
</svg>