<?xml version="1.0" encoding="UTF-8"?>
<svg width="168px" height="192px" viewBox="0 0 168 192" version="1.1" xmlns="http://www.w3.org/2000/svg" xmlns:xlink="http://www.w3.org/1999/xlink">
    <title>C</title>
    <defs>
        <path d="M47.7292222,176.580714 C33.4016423,168.705907 21.4908525,157.076372 13.276697,142.94173 C4.8070557,128.307864 0.461486172,111.652714 0.701938382,94.7467811 C0.459317643,77.8353606 4.8049333,61.1743233 13.276697,46.5353102 C21.4944527,32.3992359 33.4039943,20.7652078 47.7292222,12.8798043 C62.7800014,4.63677811 79.7128941,0.441045762 96.8715772,0.703020864 C109.525822,0.567560801 122.09637,2.76883434 133.951417,7.19620389 C145.67506,11.9117959 156.259496,19.070536 165,28.1957856 L133.819225,182.148659 C122.021826,186.630879 109.491418,188.872197 96.8715772,188.757497 C79.7122882,189.024775 62.7780606,184.828712 47.7292222,176.580714 Z" id="path-1"></path>
    </defs>
    <g id="Page-1" stroke="none" stroke-width="1" fill="none" fill-rule="evenodd">
        <g id="front-page" transform="translate(-993.000000, -2621.000000)">
            <g id="Group-7" transform="translate(4.000000, 2405.000000)">
                <g id="Group" transform="translate(257.000000, 217.000000)">
                    <g id="david-greenwood-haigh-h63JW5s6K08-unsplash" transform="translate(733.000000, 0.000000)">
                        <mask id="mask-2" fill="white">
                            <use xlink:href="#path-1"></use>
                        </mask>
                        <use id="Mask" stroke="#343B46" stroke-width="3" fill-rule="nonzero" xlink:href="#path-1"></use>
                    </g>
                </g>
            </g>
        </g>
    </g>
</svg>