<?xml version="1.0" encoding="UTF-8"?>
<svg width="135px" height="145px" viewBox="0 0 135 145" version="1.1" xmlns="http://www.w3.org/2000/svg" xmlns:xlink="http://www.w3.org/1999/xlink">
    <title>world copy 2</title>
    <defs>
        <filter id="filter-1">
            <feColorMatrix in="SourceGraphic" type="matrix" values="0 0 0 0 0.839216 0 0 0 0 0.121569 0 0 0 0 0.149020 0 0 0 1.000000 0"></feColorMatrix>
        </filter>
        <filter id="filter-2">
            <feColorMatrix in="SourceGraphic" type="matrix" values="0 0 0 0 0.839216 0 0 0 0 0.121569 0 0 0 0 0.149020 0 0 0 1.000000 0"></feColorMatrix>
        </filter>
    </defs>
    <g id="Page-1" stroke="none" stroke-width="1" fill="none" fill-rule="evenodd" stroke-linecap="round" stroke-linejoin="round">
        <g id="front-page" transform="translate(-304.000000, -3520.000000)">
            <g id="world-copy-2" transform="translate(296.000000, 3517.000000)" filter="url(#filter-1)">
                <g filter="url(#filter-2)" id="Group-2">
                    <g transform="translate(10.066667, 5.033333)">
                        <path d="M20.1333333,46.0743783 L20.1333333,90.599245 C20.1333333,101.720395 40.41515,110.732578 65.4333333,110.732578 C90.4515167,110.732578 110.733333,101.720395 110.733333,90.599245 L110.733333,46.0743783" id="Stroke-2423" stroke="#444444" stroke-width="3.78"></path>
                        <polygon id="Stroke-2424" stroke="#444444" stroke-width="3.78" points="65.4333333 70.4666667 0 35.2333333 65.4333333 0 130.866667 35.2333333"></polygon>
                        <polyline id="Stroke-2425" stroke="#444444" stroke-width="3.78" points="95.6333333 125.833333 105.7 140.933333 85.5666667 140.933333 95.6333333 125.833333 95.6333333 54.27695 71.4683 39.2574833"></polyline>
                        <path d="M55.3666667,35.2333333 C55.3666667,32.4524167 59.8740167,30.2 65.4333333,30.2 C70.99265,30.2 75.5,32.4524167 75.5,35.2333333 C75.5,38.01425 70.99265,40.2666667 65.4333333,40.2666667 C59.8740167,40.2666667 55.3666667,38.01425 55.3666667,35.2333333 L55.3666667,35.2333333 Z" id="Stroke-2426" stroke="#444444" stroke-width="3.78"></path>
                    </g>
                </g>
            </g>
        </g>
    </g>
</svg>