<?xml version="1.0" encoding="UTF-8"?>
<svg width="145px" height="135px" viewBox="0 0 145 135" version="1.1" xmlns="http://www.w3.org/2000/svg" xmlns:xlink="http://www.w3.org/1999/xlink">
    <title>world copy 5</title>
    <defs>
        <filter id="filter-1">
            <feColorMatrix in="SourceGraphic" type="matrix" values="0 0 0 0 0.839216 0 0 0 0 0.121569 0 0 0 0 0.149020 0 0 0 1.000000 0"></feColorMatrix>
        </filter>
    </defs>
    <g id="Page-1" stroke="none" stroke-width="1" fill="none" fill-rule="evenodd" stroke-linecap="round" stroke-linejoin="round">
        <g id="front-page" transform="translate(-649.000000, -4152.000000)">
            <g id="Group-4" transform="translate(646.000000, 4144.000000)" filter="url(#filter-1)">
                <g transform="translate(5.033333, 10.066667)">
                    <line x1="90.59396" y1="58.501175" x2="103.922227" y2="83.491675" id="Stroke-1165" stroke="#444444" stroke-width="3.78"></line>
                    <line x1="44.98441" y1="70.4684283" x2="58.12896" y2="47.0986617" id="Stroke-1166" stroke="#444444" stroke-width="3.78"></line>
                    <line x1="75.5" y1="105.7" x2="50.3333333" y2="105.7" id="Stroke-1167" stroke="#444444" stroke-width="3.78"></line>
                    <path d="M0,105.7 C0,91.80045 11.2671167,80.5333333 25.1666667,80.5333333 C39.0662167,80.5333333 50.3333333,91.80045 50.3333333,105.7 C50.3333333,119.59955 39.0662167,130.866667 25.1666667,130.866667 C11.2671167,130.866667 0,119.59955 0,105.7 L0,105.7 Z" id="Stroke-1168" stroke="#444444" stroke-width="3.78"></path>
                    <path d="M90.6,105.7 C90.6,91.80045 101.867117,80.5333333 115.766667,80.5333333 C129.666217,80.5333333 140.933333,91.80045 140.933333,105.7 C140.933333,119.59955 129.666217,130.866667 115.766667,130.866667 C101.867117,130.866667 90.6,119.59955 90.6,105.7 L90.6,105.7 Z" id="Stroke-1169" stroke="#444444" stroke-width="3.78"></path>
                    <path d="M45.3,25.1666667 C45.3,11.2671167 56.5671167,0 70.4666667,0 C84.3662167,0 95.6333333,11.2671167 95.6333333,25.1666667 C95.6333333,39.0662167 84.3662167,50.3333333 70.4666667,50.3333333 C56.5671167,50.3333333 45.3,39.0662167 45.3,25.1666667 L45.3,25.1666667 Z" id="Stroke-1170" stroke="#444444" stroke-width="3.78"></path>
                </g>
            </g>
        </g>
    </g>
</svg>