<?xml version="1.0" encoding="UTF-8"?>
<svg width="104px" height="52px" viewBox="0 0 104 52" version="1.1" xmlns="http://www.w3.org/2000/svg" xmlns:xlink="http://www.w3.org/1999/xlink">
    <title>logo</title>
    <g id="Page-1" stroke="none" stroke-width="1" fill="none" fill-rule="evenodd">
        <g id="front-page" transform="translate(-81.000000, -49.000000)" fill="#862F5D" fill-rule="nonzero">
            <g id="logo" transform="translate(81.000000, 49.000000)">
                <path d="M21.41844,8.59817289 L27.5209006,2.63798746 C25.1363256,1.17193891 21.8628769,0.5 17.7945699,0.5 L6.11100742,0.5 L0,32.5 L12.1792805,32.5 C26.3243397,32.5 31.9909102,22.4034633 31.9909102,11.8967821 C32.0820242,9.57244084 31.4864443,7.27383689 30.2815375,5.29956368 L21.41844,8.59817289 Z M12.8202953,24.8817835 L11.0254539,24.8817835 L14.2647152,7.99604581 L16.7774931,7.99604581 C20.5979411,7.99604581 21.9910799,10.2911099 21.9910799,13.4588219 C22.0167204,19.8378784 18.5552407,24.8817835 12.8202953,24.8817835 Z" id="Shape"></path>
                <polygon id="X" points="39.5477707 33.5 44.8089172 23.9183381 46.5923567 33.5 57.8280255 33.5 53.1464968 16.7664756 63 1.5 51.8535032 1.5 47.3949045 9.79799427 45.9681529 1.5 35 1.5 39.1019108 16.8123209 28 33.5"></polygon>
                <path d="M9.18616567,51.2348066 L14.8044406,35.7651934 L13.1494449,35.7651934 L8.40222032,49.179558 L3.65499573,35.7651934 L2,35.7651934 L7.61827498,51.2348066 L9.18616567,51.2348066 Z M25.6925705,51.2348066 L25.6925705,49.7762431 L18.2886422,49.7762431 L18.2886422,44.1629834 L25.0392827,44.1629834 L25.0392827,42.7044199 L18.2886422,42.7044199 L18.2886422,37.2237569 L25.5836892,37.2237569 L25.5836892,35.7651934 L16.764304,35.7651934 L16.764304,51.2348066 L25.6925705,51.2348066 Z M29.8300598,51.2348066 L29.8300598,38.6381215 L38.322801,51.2348066 L39.6293766,51.2348066 L39.6293766,35.7651934 L38.1050384,35.7651934 L38.1050384,48.3618785 L29.6122972,35.7651934 L28.3057216,35.7651934 L28.3057216,51.2348066 L29.8300598,51.2348066 Z M48.0132365,51.2348066 L48.0132365,37.2237569 L52.6951324,37.2237569 L52.6951324,35.7651934 L41.8070026,35.7651934 L41.8070026,37.2237569 L46.4888984,37.2237569 L46.4888984,51.2348066 L48.0132365,51.2348066 Z M60.3168232,51.5 C61.9935952,51.5 63.3654996,50.9917127 64.41076,49.9972376 C65.4560205,49.0027624 65.9786507,47.6546961 65.9786507,45.9751381 L65.9786507,35.7651934 L64.4543126,35.7651934 L64.4543126,45.9751381 C64.4543126,48.4502762 62.9299744,49.9972376 60.3168232,49.9972376 C57.7036721,49.9972376 56.1793339,48.4502762 56.1793339,45.9751381 L56.1793339,35.7651934 L54.6549957,35.7651934 L54.6549957,45.9751381 C54.6549957,47.6546961 55.177626,49.0027624 56.2228864,49.9972376 C57.2681469,50.9917127 58.6400512,51.5 60.3168232,51.5 Z M70.7694278,51.2348066 L70.7694278,45.0469613 L75.0375747,45.0469613 L78.6088813,51.2348066 L80.3509821,51.2348066 L76.6272417,44.8480663 C77.5853971,44.5607735 78.3693424,44.0303867 78.9790777,43.2127072 C79.6105892,42.3950276 79.9154569,41.4447514 79.9154569,40.4060773 C79.9154569,39.1243094 79.4581554,38.0414365 78.5653288,37.1353591 C77.6725021,36.2292818 76.6054654,35.7651934 75.3424424,35.7651934 L69.2450897,35.7651934 L69.2450897,51.2348066 L70.7694278,51.2348066 Z M75.3424424,43.5883978 L70.7694278,43.5883978 L70.7694278,37.2237569 L75.3424424,37.2237569 C76.1917165,37.2237569 76.910333,37.5331492 77.4982921,38.1519337 C78.0862511,38.7707182 78.3911187,39.5220994 78.3911187,40.4060773 C78.3911187,41.2679558 78.0862511,42.019337 77.4982921,42.660221 C76.910333,43.2790055 76.1917165,43.5883978 75.3424424,43.5883978 Z M91.4568745,51.2348066 L91.4568745,49.7762431 L84.0529462,49.7762431 L84.0529462,44.1629834 L90.8035867,44.1629834 L90.8035867,42.7044199 L84.0529462,42.7044199 L84.0529462,37.2237569 L91.3479932,37.2237569 L91.3479932,35.7651934 L82.528608,35.7651934 L82.528608,51.2348066 L91.4568745,51.2348066 Z M98.8608027,51.5 C100.406917,51.5 101.648164,51.1022099 102.584543,50.3287293 C103.520922,49.5331492 104,48.4723757 104,47.1685083 C104,46.3729282 103.738685,45.6436464 103.455594,45.179558 C103.194278,44.6712707 102.432109,44.140884 101.996584,43.8756906 C101.778822,43.7209945 101.430401,43.5662983 100.9731,43.3895028 C100.515798,43.1906077 100.167378,43.058011 99.9278395,42.9917127 L98.7519214,42.5718232 C97.5542272,42.1740331 96.6831768,41.7762431 96.1605465,41.4005525 C95.6379163,41.0248619 95.3766012,40.4502762 95.3766012,39.6767956 C95.3766012,37.9972376 96.6396243,37.0027624 98.5341588,37.0027624 C100.341588,37.0027624 101.582835,37.8646409 102.279675,39.5662983 L103.564475,38.8370166 C102.715201,36.8922652 100.907771,35.5 98.5341588,35.5 C97.205807,35.5 96.0952178,35.8756906 95.2023911,36.6491713 C94.3095645,37.4005525 93.852263,38.4392265 93.852263,39.7430939 C93.852263,41.0911602 94.440222,42.1077348 95.5943638,42.8149171 C96.0952178,43.1464088 97.1404782,43.5662983 98.7301452,44.0966851 C100.058497,44.538674 101.016652,44.9585635 101.604611,45.378453 C102.19257,45.7983425 102.475662,46.3950276 102.475662,47.2127072 C102.475662,48.8922652 101.14731,49.9972376 98.882579,49.9972376 C96.5525192,49.9972376 95.0499573,48.8701657 94.5055508,46.9475138 L93.1989752,47.7209945 C93.9829206,50.0856354 96.0734415,51.5 98.8608027,51.5 Z" id="VENTURES"></path>
            </g>
        </g>
    </g>
</svg>