<?xml version="1.0" encoding="UTF-8"?>
<svg width="296px" height="146px" viewBox="0 0 296 146" version="1.1" xmlns="http://www.w3.org/2000/svg" xmlns:xlink="http://www.w3.org/1999/xlink">
    <title>logo</title>
    <defs>
        <filter id="filter-1">
            <feColorMatrix in="SourceGraphic" type="matrix" values="0 0 0 0 0.525490 0 0 0 0 0.184314 0 0 0 0 0.364706 0 0 0 1.000000 0"></feColorMatrix>
        </filter>
        <polygon id="path-2" points="112.993631 96 128.025478 68.4527221 133.121019 96 165.22293 96 151.847134 47.8911175 180 4 148.152866 4 135.414013 27.8567335 131.33758 4 100 4 111.719745 48.0229226 80 96"></polygon>
        <path d="M26.4312553,145.237569 L42.4047822,100.762431 L37.6994022,100.762431 L24.2023911,139.328729 L10.70538,100.762431 L6,100.762431 L21.9735269,145.237569 L26.4312553,145.237569 Z M73.3612297,145.237569 L73.3612297,141.044199 L52.3108454,141.044199 L52.3108454,124.906077 L71.5038429,124.906077 L71.5038429,120.712707 L52.3108454,120.712707 L52.3108454,104.955801 L73.0516652,104.955801 L73.0516652,100.762431 L47.9769428,100.762431 L47.9769428,145.237569 L73.3612297,145.237569 Z M85.1246798,145.237569 L85.1246798,109.022099 L109.270709,145.237569 L112.985482,145.237569 L112.985482,100.762431 L108.65158,100.762431 L108.65158,136.977901 L84.5055508,100.762431 L80.7907771,100.762431 L80.7907771,145.237569 L85.1246798,145.237569 Z M136.821947,145.237569 L136.821947,104.955801 L150.133219,104.955801 L150.133219,100.762431 L119.176772,100.762431 L119.176772,104.955801 L132.488044,104.955801 L132.488044,145.237569 L136.821947,145.237569 Z M171.802733,146 C176.570026,146 180.470538,144.538674 183.442357,141.679558 C186.414176,138.820442 187.900085,134.944751 187.900085,130.116022 L187.900085,100.762431 L183.566183,100.762431 L183.566183,130.116022 C183.566183,137.232044 179.23228,141.679558 171.802733,141.679558 C164.373185,141.679558 160.039283,137.232044 160.039283,130.116022 L160.039283,100.762431 L155.70538,100.762431 L155.70538,130.116022 C155.70538,134.944751 157.191289,138.820442 160.163108,141.679558 C163.134927,144.538674 167.03544,146 171.802733,146 Z M201.520922,145.237569 L201.520922,127.447514 L213.65585,127.447514 L223.809564,145.237569 L228.762596,145.237569 L218.175491,126.875691 C220.899658,126.049724 223.128523,124.524862 224.862084,122.174033 C226.657558,119.823204 227.524338,117.09116 227.524338,114.104972 C227.524338,110.41989 226.224167,107.30663 223.685739,104.701657 C221.14731,102.096685 218.113578,100.762431 214.52263,100.762431 L197.18702,100.762431 L197.18702,145.237569 L201.520922,145.237569 Z M214.52263,123.254144 L201.520922,123.254144 L201.520922,104.955801 L214.52263,104.955801 C216.937233,104.955801 218.980359,105.845304 220.652007,107.624309 C222.323655,109.403315 223.190436,111.563536 223.190436,114.104972 C223.190436,116.582873 222.323655,118.743094 220.652007,120.585635 C218.980359,122.364641 216.937233,123.254144 214.52263,123.254144 Z M260.338173,145.237569 L260.338173,141.044199 L239.287788,141.044199 L239.287788,124.906077 L258.480786,124.906077 L258.480786,120.712707 L239.287788,120.712707 L239.287788,104.955801 L260.028608,104.955801 L260.028608,100.762431 L234.953886,100.762431 L234.953886,145.237569 L260.338173,145.237569 Z M281.388557,146 C285.784372,146 289.313407,144.856354 291.975662,142.632597 C294.637916,140.345304 296,137.29558 296,133.546961 C296,131.259669 295.257045,129.162983 294.452178,127.828729 C293.709223,126.367403 291.542272,124.842541 290.304014,124.08011 C289.684885,123.635359 288.694278,123.190608 287.394108,122.68232 C286.093937,122.110497 285.10333,121.729282 284.422289,121.538674 L281.078992,120.331492 C277.673783,119.187845 275.197267,118.044199 273.711358,116.964088 C272.225448,115.883978 271.482494,114.232044 271.482494,112.008287 C271.482494,107.179558 275.073442,104.320442 280.459863,104.320442 C285.598634,104.320442 289.127669,106.798343 291.108881,111.690608 L294.761742,109.593923 C292.347139,104.002762 287.208369,100 280.459863,100 C276.683177,100 273.525619,101.08011 270.98719,103.303867 C268.448762,105.464088 267.148591,108.450276 267.148591,112.198895 C267.148591,116.074586 268.820239,118.997238 272.101623,121.030387 C273.525619,121.983425 276.497438,123.190608 281.017079,124.71547 C284.793766,125.986188 287.517933,127.19337 289.189582,128.400552 C290.86123,129.607735 291.666097,131.323204 291.666097,133.674033 C291.666097,138.502762 287.889411,141.679558 281.45047,141.679558 C274.82579,141.679558 270.5538,138.439227 269.005978,132.911602 L265.291204,135.135359 C267.520068,141.933702 273.463706,146 281.388557,146 Z" id="path-3"></path>
    </defs>
    <g id="Page-1" stroke="none" stroke-width="1" fill="none" fill-rule="evenodd">
        <g id="front-page" transform="translate(-572.000000, -3721.000000)">
            <g filter="url(#filter-1)" id="logo">
                <g transform="translate(572.000000, 3721.000000)">
                    <path d="M61.578015,23.2822471 L79.1225891,6.14671394 C72.2669362,1.93182438 62.8557711,0 51.1593884,0 L17.5691463,0 L0,92 L35.0154315,92 C75.6824765,92 91.9738668,62.972457 91.9738668,32.7657486 C92.2358196,26.0832674 90.5235273,19.4747811 87.0594202,13.7987456 L61.578015,23.2822471 Z M36.858349,70.0976275 L31.6981801,70.0976275 L41.0110563,21.5511317 L48.2352927,21.5511317 C59.2190807,21.5511317 63.2243546,28.149441 63.2243546,37.256613 C63.2980713,55.5964003 53.3463171,70.0976275 36.858349,70.0976275 Z" id="Shape" fill="#F5F5F6" fill-rule="nonzero"></path>
                    <g id="X" fill-rule="nonzero" fill="#F5F5F6">
                        <use xlink:href="#path-2"></use>
                        <use xlink:href="#path-2"></use>
                    </g>
                    <g id="VENTURES" fill-rule="nonzero" fill="#F5F5F6">
                        <use xlink:href="#path-3"></use>
                        <use xlink:href="#path-3"></use>
                    </g>
                </g>
            </g>
        </g>
    </g>
</svg>