<?xml version="1.0" encoding="UTF-8"?>
<svg width="155px" height="155px" viewBox="0 0 155 155" version="1.1" xmlns="http://www.w3.org/2000/svg" xmlns:xlink="http://www.w3.org/1999/xlink">
    <title>world copy 10</title>
    <defs>
        <filter id="filter-1">
            <feColorMatrix in="SourceGraphic" type="matrix" values="0 0 0 0 0.839216 0 0 0 0 0.121569 0 0 0 0 0.149020 0 0 0 1.000000 0"></feColorMatrix>
        </filter>
    </defs>
    <g id="WEBSITE-Single-Page-FINAL" stroke="none" stroke-width="1" fill="none" fill-rule="evenodd" stroke-linecap="round" stroke-linejoin="round">
        <g id="version-1" transform="translate(-319.000000, -3397.000000)">
            <g id="world-copy-10" transform="translate(321.000000, 3399.000000)" filter="url(#filter-1)">
                <g>
                    <path d="M75.5,100.666667 L75.5,100.666667 C60.21125,100.666667 47.8166667,88.2720833 47.8166667,72.9833333 L47.8166667,65.4333333 C47.8166667,50.1445833 60.21125,37.75 75.5,37.75 C90.78875,37.75 103.183333,50.1445833 103.183333,65.4333333 L103.183333,72.9833333 C103.183333,88.2720833 90.78875,100.666667 75.5,100.666667 L75.5,100.666667 Z" id="Stroke-274" stroke="#D61F26" stroke-width="3.78"></path>
                    <path d="M31.4583333,135.9 C37.6192762,123.975001 50.5133936,115.766667 65.4166237,115.766667 L85.5833763,115.766667 C100.471481,115.766667 113.373161,123.996596 119.541667,135.9" id="Stroke-275" stroke="#D61F26" stroke-width="3.78"></path>
                    <path d="M75.5,0 C117.19865,0 151,33.80135 151,75.5 C151,117.19865 117.19865,151 75.5,151 C33.80135,151 0,117.19865 0,75.5 C0,33.80135 33.80135,0 75.5,0 L75.5,0 Z" id="Stroke-276" stroke="#D61F26" stroke-width="3.78"></path>
                </g>
            </g>
        </g>
    </g>
</svg>