<?xml version="1.0" encoding="UTF-8"?>
<svg width="145px" height="155px" viewBox="0 0 145 155" version="1.1" xmlns="http://www.w3.org/2000/svg" xmlns:xlink="http://www.w3.org/1999/xlink">
    <title>world copy</title>
    <defs>
        <filter id="filter-1">
            <feColorMatrix in="SourceGraphic" type="matrix" values="0 0 0 0 0.839216 0 0 0 0 0.121569 0 0 0 0 0.149020 0 0 0 1.000000 0"></feColorMatrix>
        </filter>
        <filter id="filter-2">
            <feColorMatrix in="SourceGraphic" type="matrix" values="0 0 0 0 0.839216 0 0 0 0 0.121569 0 0 0 0 0.149020 0 0 0 1.000000 0"></feColorMatrix>
        </filter>
    </defs>
    <g id="Page-1" stroke="none" stroke-width="1" fill="none" fill-rule="evenodd" stroke-linecap="round" stroke-linejoin="round">
        <g id="front-page" transform="translate(-999.000000, -3515.000000)">
            <g id="world-copy" transform="translate(996.000000, 3517.000000)" filter="url(#filter-1)">
                <g filter="url(#filter-2)" id="Group-3">
                    <g transform="translate(5.033333, 0.000000)">
                        <line x1="103.386428" y1="25.1666667" x2="37.5554617" y2="25.1666667" id="Stroke-2427" stroke="#444444" stroke-width="3.78"></line>
                        <polyline id="Stroke-2428" stroke="#444444" stroke-width="3.78" points="36.6502167 75.561155 0 25.1674217 20.1333333 0.000755 120.8 0.000755 140.933333 25.1674217 104.283117 75.561155"></polyline>
                        <line x1="20.1330817" y1="1.78819922e-13" x2="62.440765" y2="61.1097" id="Stroke-2429" stroke="#444444" stroke-width="3.78"></line>
                        <line x1="120.799748" y1="1.78819922e-13" x2="78.5172317" y2="61.1097" id="Stroke-2430" stroke="#444444" stroke-width="3.78"></line>
                        <path d="M25.166415,105.7 C25.166415,80.6818167 45.4482317,60.4 70.466415,60.4 C95.4845983,60.4 115.766415,80.6818167 115.766415,105.7 C115.766415,130.718183 95.4845983,151 70.466415,151 C45.4482317,151 25.166415,130.718183 25.166415,105.7 L25.166415,105.7 Z" id="Stroke-2431" stroke="#444444" stroke-width="3.78"></path>
                        <polygon id="Stroke-2432" stroke="#444444" stroke-width="3.78" points="45.2997483 98.4696167 62.7075317 96.07375 70.6048317 80.3773 78.2630483 96.1920333 95.6330817 98.85215 82.9566317 111.02275 85.7954317 128.3651 70.3028317 120.06765 54.686915 128.128533 57.789965 110.831483"></polygon>
                    </g>
                </g>
            </g>
        </g>
    </g>
</svg>